<mxfile host="app.diagrams.net" modified="2022-03-31T09:45:55.723Z" agent="5.0 (Windows NT 10.0; Win64; x64) AppleWebKit/537.36 (KHTML, like Gecko) Chrome/99.0.4844.82 Safari/537.36" etag="uPo0BN2Y5lOnxPFcwH31" version="17.3.0" type="github">
  <diagram name="Page-1" id="5f0bae14-7c28-e335-631c-24af17079c00">
    <mxGraphModel dx="1209" dy="724" grid="1" gridSize="10" guides="1" tooltips="1" connect="1" arrows="1" fold="1" page="1" pageScale="1" pageWidth="1100" pageHeight="850" background="none" math="0" shadow="0">
      <root>
        <mxCell id="0" />
        <mxCell id="1" parent="0" />
        <mxCell id="39150e848f15840c-1" value="Service" style="verticalAlign=top;align=left;spacingTop=8;spacingLeft=2;spacingRight=12;shape=cube;size=10;direction=south;fontStyle=4;html=1;rounded=0;shadow=0;comic=0;labelBackgroundColor=none;strokeWidth=1;fontFamily=Verdana;fontSize=12" parent="1" vertex="1">
          <mxGeometry x="320.5" y="700.53" width="330" height="160" as="geometry" />
        </mxCell>
        <mxCell id="39150e848f15840c-3" value="Read/Write Update" style="verticalAlign=top;align=left;spacingTop=8;spacingLeft=2;spacingRight=12;shape=cube;size=10;direction=south;fontStyle=4;html=1;rounded=0;shadow=0;comic=0;labelBackgroundColor=none;strokeWidth=1;fontFamily=Verdana;fontSize=12" parent="1" vertex="1">
          <mxGeometry x="335" y="1000" width="301" height="210" as="geometry" />
        </mxCell>
        <mxCell id="39150e848f15840c-6" value="" style="ellipse;whiteSpace=wrap;html=1;rounded=0;shadow=0;comic=0;labelBackgroundColor=none;strokeWidth=1;fontFamily=Verdana;fontSize=12;align=center;" parent="1" vertex="1">
          <mxGeometry x="473" y="940" width="20" height="20" as="geometry" />
        </mxCell>
        <mxCell id="pCuNBlwzVaCDn5k0Nj8b-5" value="" style="ellipse;whiteSpace=wrap;html=1;align=center;aspect=fixed;resizable=0;points=[];outlineConnect=0;sketch=0;" parent="1" vertex="1">
          <mxGeometry x="495" y="650" width="10" height="10" as="geometry" />
        </mxCell>
        <mxCell id="39150e848f15840c-2" value="HMI" style="verticalAlign=top;align=left;spacingTop=8;spacingLeft=2;spacingRight=12;shape=cube;size=10;direction=south;fontStyle=4;html=1;rounded=0;shadow=0;comic=0;labelBackgroundColor=none;strokeWidth=1;fontFamily=Verdana;fontSize=12" parent="1" vertex="1">
          <mxGeometry x="288" y="180" width="420" height="430" as="geometry" />
        </mxCell>
        <mxCell id="pCuNBlwzVaCDn5k0Nj8b-1" value="&lt;b&gt;Activities&lt;/b&gt;" style="html=1;dropTarget=0;verticalAlign=top;align=left;" parent="1" vertex="1">
          <mxGeometry x="350.5" y="210" width="280" height="170" as="geometry" />
        </mxCell>
        <mxCell id="pCuNBlwzVaCDn5k0Nj8b-2" value="" style="shape=module;jettyWidth=8;jettyHeight=4;" parent="pCuNBlwzVaCDn5k0Nj8b-1" vertex="1">
          <mxGeometry x="1" width="20" height="20" relative="1" as="geometry">
            <mxPoint x="-27" y="7" as="offset" />
          </mxGeometry>
        </mxCell>
        <mxCell id="39150e848f15840c-7" value="ContentDisplayActivity" style="shape=component;align=left;spacingLeft=36;rounded=0;shadow=0;comic=0;labelBackgroundColor=none;strokeWidth=1;fontFamily=Verdana;fontSize=12;html=1;" parent="1" vertex="1">
          <mxGeometry x="390.5" y="240" width="190" height="40" as="geometry" />
        </mxCell>
        <mxCell id="pCuNBlwzVaCDn5k0Nj8b-6" value="UpdateProgressActivity" style="shape=component;align=left;spacingLeft=36;rounded=0;shadow=0;comic=0;labelBackgroundColor=none;strokeWidth=1;fontFamily=Verdana;fontSize=12;html=1;" parent="1" vertex="1">
          <mxGeometry x="390.5" y="320" width="190" height="40" as="geometry" />
        </mxCell>
        <mxCell id="pCuNBlwzVaCDn5k0Nj8b-7" value="" style="endArrow=open;endFill=1;endSize=12;html=1;rounded=0;exitX=0.5;exitY=1;exitDx=0;exitDy=0;entryX=0.5;entryY=0;entryDx=0;entryDy=0;" parent="1" source="39150e848f15840c-7" target="pCuNBlwzVaCDn5k0Nj8b-6" edge="1">
          <mxGeometry width="160" relative="1" as="geometry">
            <mxPoint x="190.5" y="625" as="sourcePoint" />
            <mxPoint x="350.5" y="625" as="targetPoint" />
          </mxGeometry>
        </mxCell>
        <mxCell id="pCuNBlwzVaCDn5k0Nj8b-8" value="&lt;b&gt;Framework&lt;/b&gt;" style="html=1;dropTarget=0;verticalAlign=top;align=left;" parent="1" vertex="1">
          <mxGeometry x="350.5" y="410" width="280" height="180" as="geometry" />
        </mxCell>
        <mxCell id="pCuNBlwzVaCDn5k0Nj8b-9" value="" style="shape=module;jettyWidth=8;jettyHeight=4;" parent="pCuNBlwzVaCDn5k0Nj8b-8" vertex="1">
          <mxGeometry x="1" width="20" height="20" relative="1" as="geometry">
            <mxPoint x="-27" y="7" as="offset" />
          </mxGeometry>
        </mxCell>
        <mxCell id="pCuNBlwzVaCDn5k0Nj8b-10" value="GeelyUpdateManager" style="shape=component;align=left;spacingLeft=36;rounded=0;shadow=0;comic=0;labelBackgroundColor=none;strokeWidth=1;fontFamily=Verdana;fontSize=12;html=1;" parent="1" vertex="1">
          <mxGeometry x="390.5" y="440" width="190" height="40" as="geometry" />
        </mxCell>
        <mxCell id="pCuNBlwzVaCDn5k0Nj8b-11" value="" style="endArrow=open;endFill=1;endSize=12;html=1;rounded=0;exitX=0.5;exitY=1;exitDx=0;exitDy=0;entryX=0.5;entryY=0;entryDx=0;entryDy=0;" parent="1" source="pCuNBlwzVaCDn5k0Nj8b-6" target="pCuNBlwzVaCDn5k0Nj8b-10" edge="1">
          <mxGeometry width="160" relative="1" as="geometry">
            <mxPoint x="495.5" y="290" as="sourcePoint" />
            <mxPoint x="495.5" y="330" as="targetPoint" />
          </mxGeometry>
        </mxCell>
        <mxCell id="pCuNBlwzVaCDn5k0Nj8b-4" value="" style="rounded=0;orthogonalLoop=1;jettySize=auto;html=1;endArrow=halfCircle;endFill=0;entryX=0.5;entryY=0.5;endSize=6;strokeWidth=1;sketch=0;exitX=0.5;exitY=1;exitDx=0;exitDy=0;" parent="1" source="39150e848f15840c-4" target="pCuNBlwzVaCDn5k0Nj8b-5" edge="1">
          <mxGeometry relative="1" as="geometry">
            <mxPoint x="540" y="390" as="sourcePoint" />
          </mxGeometry>
        </mxCell>
        <mxCell id="pCuNBlwzVaCDn5k0Nj8b-18" value="&lt;b&gt;Background Service&lt;/b&gt;" style="html=1;dropTarget=0;verticalAlign=top;align=left;" parent="1" vertex="1">
          <mxGeometry x="345.5" y="745.53" width="280" height="90" as="geometry" />
        </mxCell>
        <mxCell id="pCuNBlwzVaCDn5k0Nj8b-19" value="" style="shape=module;jettyWidth=8;jettyHeight=4;" parent="pCuNBlwzVaCDn5k0Nj8b-18" vertex="1">
          <mxGeometry x="1" width="20" height="20" relative="1" as="geometry">
            <mxPoint x="-27" y="7" as="offset" />
          </mxGeometry>
        </mxCell>
        <mxCell id="39150e848f15840c-5" value="GeelyUpdateService" style="shape=component;align=left;spacingLeft=36;rounded=0;shadow=0;comic=0;labelBackgroundColor=none;strokeWidth=1;fontFamily=Verdana;fontSize=12;html=1;" parent="1" vertex="1">
          <mxGeometry x="403" y="780.53" width="170" height="40" as="geometry" />
        </mxCell>
        <mxCell id="pCuNBlwzVaCDn5k0Nj8b-3" value="" style="rounded=0;orthogonalLoop=1;jettySize=auto;html=1;endArrow=none;endFill=0;sketch=0;sourcePerimeterSpacing=0;targetPerimeterSpacing=0;exitX=0.5;exitY=0;exitDx=0;exitDy=0;" parent="1" source="39150e848f15840c-5" target="pCuNBlwzVaCDn5k0Nj8b-5" edge="1">
          <mxGeometry relative="1" as="geometry">
            <mxPoint x="425.5" y="1240.53" as="sourcePoint" />
            <mxPoint x="432.73606797757316" y="670.0021359551461" as="targetPoint" />
          </mxGeometry>
        </mxCell>
        <mxCell id="39150e848f15840c-4" value="«interface»&lt;br&gt;&lt;b&gt;IGeelyUpdate&lt;/b&gt;" style="html=1;rounded=0;shadow=0;comic=0;labelBackgroundColor=none;strokeWidth=1;fontFamily=Verdana;fontSize=12;align=center;" parent="1" vertex="1">
          <mxGeometry x="430.5" y="520" width="110" height="50" as="geometry" />
        </mxCell>
        <mxCell id="pCuNBlwzVaCDn5k0Nj8b-22" value="&lt;b&gt;CPP&lt;br&gt;&lt;/b&gt;" style="html=1;dropTarget=0;verticalAlign=top;align=left;" parent="1" vertex="1">
          <mxGeometry x="375" y="1035" width="221" height="155" as="geometry" />
        </mxCell>
        <mxCell id="pCuNBlwzVaCDn5k0Nj8b-23" value="" style="shape=module;jettyWidth=8;jettyHeight=4;" parent="pCuNBlwzVaCDn5k0Nj8b-22" vertex="1">
          <mxGeometry x="1" width="20" height="20" relative="1" as="geometry">
            <mxPoint x="-27" y="7" as="offset" />
          </mxGeometry>
        </mxCell>
        <mxCell id="39150e848f15840c-10" value="update_jni" style="shape=component;align=left;spacingLeft=36;rounded=0;shadow=0;comic=0;labelBackgroundColor=none;strokeWidth=1;fontFamily=Verdana;fontSize=12;html=1;" parent="1" vertex="1">
          <mxGeometry x="417" y="1060" width="120" height="40" as="geometry" />
        </mxCell>
        <mxCell id="pCuNBlwzVaCDn5k0Nj8b-24" value="JNI" style="text;html=1;align=center;verticalAlign=middle;resizable=0;points=[];autosize=1;strokeColor=none;fillColor=none;" parent="1" vertex="1">
          <mxGeometry x="493" y="940" width="30" height="20" as="geometry" />
        </mxCell>
        <mxCell id="pCuNBlwzVaCDn5k0Nj8b-25" value="Use" style="endArrow=open;endSize=12;dashed=1;html=1;rounded=0;exitX=0.5;exitY=1;exitDx=0;exitDy=0;entryX=0.5;entryY=0;entryDx=0;entryDy=0;" parent="1" source="39150e848f15840c-5" target="39150e848f15840c-6" edge="1">
          <mxGeometry width="160" relative="1" as="geometry">
            <mxPoint x="195" y="1300" as="sourcePoint" />
            <mxPoint x="355" y="1300" as="targetPoint" />
          </mxGeometry>
        </mxCell>
        <mxCell id="pCuNBlwzVaCDn5k0Nj8b-26" value="" style="endArrow=open;endFill=1;endSize=12;html=1;rounded=0;exitX=0.5;exitY=1;exitDx=0;exitDy=0;entryX=0.5;entryY=0;entryDx=0;entryDy=0;" parent="1" source="39150e848f15840c-6" target="39150e848f15840c-10" edge="1">
          <mxGeometry width="160" relative="1" as="geometry">
            <mxPoint x="410" y="480" as="sourcePoint" />
            <mxPoint x="410" y="560" as="targetPoint" />
            <Array as="points" />
          </mxGeometry>
        </mxCell>
        <mxCell id="pCuNBlwzVaCDn5k0Nj8b-28" value="update_lib" style="shape=component;align=left;spacingLeft=36;rounded=0;shadow=0;comic=0;labelBackgroundColor=none;strokeWidth=1;fontFamily=Verdana;fontSize=12;html=1;" parent="1" vertex="1">
          <mxGeometry x="409" y="1140" width="136" height="40" as="geometry" />
        </mxCell>
        <mxCell id="pCuNBlwzVaCDn5k0Nj8b-30" value="" style="endArrow=open;endFill=1;endSize=12;html=1;rounded=0;exitX=0.5;exitY=1;exitDx=0;exitDy=0;entryX=0.5;entryY=0;entryDx=0;entryDy=0;" parent="1" source="39150e848f15840c-10" target="pCuNBlwzVaCDn5k0Nj8b-28" edge="1">
          <mxGeometry width="160" relative="1" as="geometry">
            <mxPoint x="541" y="380" as="sourcePoint" />
            <mxPoint x="541" y="420" as="targetPoint" />
          </mxGeometry>
        </mxCell>
        <mxCell id="pCuNBlwzVaCDn5k0Nj8b-31" value="" style="endArrow=open;endFill=1;endSize=12;html=1;rounded=0;exitX=0.5;exitY=1;exitDx=0;exitDy=0;" parent="1" source="pCuNBlwzVaCDn5k0Nj8b-10" target="39150e848f15840c-4" edge="1">
          <mxGeometry width="160" relative="1" as="geometry">
            <mxPoint x="495.5" y="290" as="sourcePoint" />
            <mxPoint x="495.5" y="330" as="targetPoint" />
          </mxGeometry>
        </mxCell>
      </root>
    </mxGraphModel>
  </diagram>
</mxfile>
